<?xml version="1.0" encoding="UTF-8"?><svg id="_1500_x_1500_px_Geometric_Logo_4" xmlns="http://www.w3.org/2000/svg" viewBox="0 0 825.2 1418.72"><defs><style>.cls-1{font-family:Montserrat-Medium, Montserrat;font-size:65.72px;font-weight:500;letter-spacing:1.5em;}.cls-2,.cls-3{fill:#1d1d1b;}.cls-3{stroke:#000;stroke-miterlimit:10;stroke-width:12px;}</style></defs><g id="Design_Elements"><g id="Line"><path class="cls-2" d="m277.78,297.97c-1.67,0-3.34-.65-4.59-1.95-2.45-2.54-2.38-6.58.15-9.04l139.5-134.89,135.62,134.19c2.51,2.48,2.53,6.53.05,9.04-2.48,2.51-6.53,2.53-9.04.05l-126.73-125.39-130.52,126.2c-1.24,1.2-2.84,1.8-4.44,1.8Z"/></g><g id="Line-2"><path class="cls-3" d="m11.02,512.69c-1.33,0-2.65-.67-3.64-1.99-1.91-2.56-1.83-6.6.18-9.03L414.74,9.44l402.91,491.2c2,2.44,2.07,6.49.15,9.03-1.92,2.55-5.1,2.63-7.1.19L414.72,27.1,14.48,510.94c-.97,1.17-2.21,1.76-3.46,1.76Z"/></g><g id="Line-3"><path class="cls-2" d="m414.57,1297.16l-139.5-134.89c-2.54-2.45-2.6-6.5-.15-9.04,2.45-2.54,6.5-2.6,9.04-.15l130.52,126.2,126.73-125.4c2.51-2.48,6.55-2.46,9.04.05,2.48,2.51,2.46,6.55-.05,9.04l-135.62,134.19Z"/></g><g id="Line-4"><path class="cls-2" d="m191.69,522.35l443.54,443.54c1.43,1.43,1.43,3.74,0,5.16s-3.74,1.43-5.16,0l-443.54-443.54c-1.43-1.43-1.43-3.74,0-5.16,1.43-1.43,3.74-1.43,5.16,0Z"/></g><g id="Line-5"><path class="cls-3" d="m814.18,906.03c1.33,0,2.65.67,3.64,1.99,1.91,2.56,1.83,6.6-.18,9.03l-407.18,492.23L7.55,918.09c-2-2.44-2.07-6.49-.15-9.03,1.92-2.55,5.1-2.63,7.1-.19l395.99,482.76,400.24-483.84c.97-1.17,2.21-1.76,3.46-1.76Z"/></g></g><g id="Text"><text class="cls-1" transform="translate(317.2 571.17) rotate(45) scale(.71 1)"><tspan x="0" y="0">SELIM</tspan></text></g></svg>