<svg width="181" height="154" viewBox="0 0 181 154" fill="none" xmlns="http://www.w3.org/2000/svg">
<g clip-path="url(#clip0_27_24)">
<path d="M172.692 137.094C172.677 135.819 172.646 134.544 172.626 133.269L171.578 114.15C171.344 108.494 171.853 109.738 166.834 109.682C166.295 109.677 165.756 109.795 165.218 109.83C156.477 110.381 147.737 110.927 138.996 111.472C136.337 112.538 133.48 112.197 130.734 112.441C121.114 113.293 111.459 113.813 101.818 114.456C95.5286 114.9 89.239 115.343 82.9443 115.787C78.0174 116.246 73.0956 116.761 68.1635 117.143C57.6232 117.959 47.0779 118.709 36.5376 119.484C29.2311 120.076 21.9195 120.667 14.6079 121.259C10.0488 121.63 7.89969 124.166 8.1607 128.868L9.48268 151.256C9.24371 153.429 9.93012 154.27 12.3402 153.934C17.1858 153.25 22.0873 152.878 26.9634 152.552C38.9782 151.751 50.9625 150.665 62.9671 149.762C76.1666 148.768 89.3712 147.885 102.576 146.927C112.526 146.202 122.497 145.652 132.412 144.611C140.547 143.76 148.764 143.974 156.843 142.25C160.697 141.429 164.785 141.735 168.761 141.424C172.738 141.113 172.738 141.057 172.697 137.099" fill="#1D1D1B"/>
<path d="M101.818 114.451C95.5286 114.894 89.239 115.338 82.9444 115.782C80.0055 109.54 77.0717 103.292 74.1379 97.05C76.492 97.05 78.8513 97.0704 81.2054 97.0551C82.2478 97.05 83.224 96.9378 83.3104 95.5251C83.3918 94.24 82.6596 93.7759 81.5817 93.5005C64.6247 89.135 54.6285 77.7777 49.5948 61.4378C49.0609 59.7089 48.4558 58.0005 47.8813 56.2818C48.888 55.3486 48.2524 54.2266 48.1406 53.2219C47.9168 51.2381 47.8406 49.295 48.6439 47.097C49.6609 49.5704 49.9456 52.0898 51.654 53.941C51.7048 54.1909 51.7557 54.4459 51.8065 54.6958C51.8828 54.604 52.0252 54.5122 52.0303 54.4204C52.0353 54.1603 51.9845 53.9002 51.6082 53.9869C50.6727 45.8577 53.4183 38.871 58.2131 32.5166C59.474 30.8438 60.5926 29.0997 61.0757 27.0189C64.2078 27.3759 67.0246 28.5795 69.6635 30.2522C79.3597 36.2547 89.9509 38.208 101.956 37.443C99.581 36.3363 97.898 35.551 96.2201 34.7656C100.166 34.5361 104.045 35.2552 107.955 35.5867C113.472 37.2237 119.111 38.0754 124.846 37.494C127.058 37.2696 127.622 38.1162 128.039 40.0031C128.883 43.8178 128.614 47.6172 128.06 51.9317C130.287 49.5602 131.075 47.0766 131.853 44.5828C132.661 45.1693 133.541 45.6793 134.258 46.3626C136.297 48.3006 136.52 51.8858 134.044 53.2525C130.765 55.0579 130.505 58.0209 129.702 60.887C125.466 76.0437 116.518 86.937 101.559 92.4601C100.878 92.71 100.196 92.9701 99.5047 93.1843C98.1675 93.6025 98.015 94.6531 98.1319 95.8056C98.259 97.0653 99.2403 97.0653 100.166 97.0755C103.43 97.1112 106.694 97.1367 109.964 97.1622C107.396 102.996 103.949 108.407 101.823 114.451M65.2704 72.5707C65.1738 72.4891 65.1942 72.0199 64.9298 72.4636C65.0518 72.484 65.1789 72.5044 65.3009 72.5299C65.9162 77.0076 71.0719 81.7301 76.848 83.0407C83.4731 84.5452 87.434 81.2558 89.9509 75.3399C92.1728 81.1283 96.4438 84.0454 101.376 83.4079C107.61 82.6021 114.265 76.9566 114.58 72.127C111.464 75.5082 107.782 75.4725 103.964 74.0905C102.017 73.3816 100.176 72.3667 98.2743 71.5253C96.7693 70.8572 95.2286 70.3574 93.5406 70.6175C91.7254 70.898 90.6881 72.1729 89.8949 73.8508C88.0848 70.7195 86.6205 70.0973 83.4528 70.8419C81.3936 71.3213 79.6089 72.4279 77.7327 73.3204C73.4464 75.3604 69.2516 75.8448 65.2755 72.5809M107.254 68.2308V68.2104C108.525 68.2104 109.796 68.2308 111.067 68.2104C115.389 68.1186 118.48 65.487 119.197 61.2389C119.634 58.638 120.016 56.0268 120.372 53.4157C120.56 52.0235 120.814 50.8403 122.4 50.2589C124.282 49.5755 124.022 47.8467 123.88 46.2912C123.728 44.6083 122.416 44.4145 121.129 44.2105C119.248 43.9147 117.367 43.6087 115.486 43.3078C108.52 42.1757 101.559 42.0125 94.6693 43.7617C90.983 44.7001 87.0933 44.9245 83.6409 43.9708C73.8888 41.2832 64.3654 42.9712 54.7657 44.3788C53.7539 44.5267 52.7218 44.8786 52.7523 46.1841C52.7879 47.5662 52.0608 49.5347 53.8658 50.0243C56.8657 50.8403 56.9877 53.0587 57.2521 55.42C57.486 57.5007 57.7707 59.5763 58.1571 61.6316C58.813 65.1148 61.9604 68.0931 65.2348 68.1747C68.5907 68.2563 71.9668 68.2461 75.3124 67.986C79.5784 67.6545 82.263 65.2831 83.4325 61.1216C84.246 58.2351 84.9731 55.3231 85.6697 52.4059C86.112 50.5496 87.5611 50.3201 89.0204 50.2946C90.4186 50.2742 91.344 50.9576 91.6186 52.5181C91.8983 54.1246 92.4525 55.68 92.8745 57.2661C95.4829 67.0884 96.7642 68.0829 106.984 68.2308C107.076 68.2308 107.167 68.2308 107.259 68.2308" fill="#D2B097"/>
<path d="M51.593 10.5567C57.0487 4.60521 64.0196 1.7391 71.8092 0.438639C81.1597 -1.11681 89.7119 1.6932 98.2133 5.0387C103.089 6.95624 108.011 8.76669 113.299 9.32767C118.206 9.84785 122.858 10.0212 125.07 3.51895C126.361 7.15003 125.853 9.94985 124.536 12.7497C127.694 12.3315 128.756 11.1738 131.359 5.48749C132.295 6.95964 132.185 11.0429 131.029 17.7373C137.339 14.3663 138.778 11.949 139.419 3.01916C143.806 9.57756 144.101 16.034 142.179 22.8168C138.295 23.1482 134.415 23.6123 130.521 23.7959C109.557 24.77 88.8679 23.2808 68.7584 16.6714C62.9875 14.7743 57.0894 13.2443 51.593 10.5618" fill="#2E293F"/>
<path d="M51.593 10.5566C57.0894 13.2392 62.9824 14.7691 68.7584 16.6663C88.8679 23.2757 109.552 24.7648 130.521 23.7907C134.415 23.6071 138.295 23.1482 142.179 22.8116C141.361 28.7019 137.715 32.4554 132.829 35.2807C124.536 35.3827 116.243 35.4847 107.95 35.5867C104.045 35.2552 100.166 34.5412 96.2201 34.7707C87.9679 33.2203 79.6546 31.9505 71.4889 29.9411C70.8736 29.7882 70.2228 29.8749 69.6584 30.2573C67.0195 28.5846 64.2027 27.381 61.0706 27.0291C55.7318 24.8566 50.2151 23.1278 45.0237 20.5727C46.0101 16.4419 48.0796 13.025 51.5879 10.5566" fill="#1866A5"/>
<path d="M74.1379 97.0551C77.0717 103.297 80.0105 109.545 82.9443 115.787C78.0174 116.246 73.0955 116.761 68.1635 117.143C57.6232 117.959 47.0779 118.709 36.5376 119.484C40.9103 112.232 46.3508 105.817 53.2607 101.013C59.4537 96.7083 66.7246 95.9893 74.1379 97.0602" fill="#1866A5"/>
<path d="M101.818 114.451C103.944 108.407 107.391 102.996 109.959 97.1622C117.921 95.7649 125.024 97.917 131.126 102.966C134.07 105.404 137.064 107.999 138.996 111.472C136.337 112.543 133.48 112.197 130.734 112.441C121.114 113.293 111.459 113.813 101.818 114.456" fill="#1866A5"/>
<path d="M45.0288 20.5728C50.215 23.1227 55.7369 24.8515 61.0757 27.0292C60.5926 29.1099 59.474 30.854 58.2131 32.5268C53.4183 38.8812 50.6727 45.868 51.6082 53.9971L51.654 53.9512C49.9456 52.0949 49.6608 49.5756 48.6439 47.1072C47.8406 49.3053 47.9219 51.2432 48.1406 53.2322C48.2524 54.2317 48.8829 55.3588 47.8812 56.2921C47.866 56.1952 47.8151 56.1136 47.7287 56.0626C46.2338 52.2071 44.9424 48.2853 44.0424 44.2411C42.3035 36.8005 41.9221 29.37 44.317 21.9854C44.4746 21.4907 44.7847 21.047 45.0288 20.5779" fill="#2E293F"/>
<path d="M107.95 35.5918C116.243 35.4898 124.536 35.3878 132.829 35.2858C132.498 38.3865 132.173 41.4872 131.848 44.5879C131.07 47.0766 130.282 49.5653 128.055 51.9317C128.614 47.6172 128.878 43.8178 128.034 40.0031C127.617 38.1213 127.053 37.2747 124.841 37.494C119.111 38.0754 113.472 37.2186 107.95 35.5867" fill="#2E293F"/>
<path d="M44.0424 44.2361C44.9424 48.2803 46.2339 52.202 47.7287 56.0575C43.2492 55.2823 41.1696 51.4014 43.3763 47.5612C44.0373 46.4086 43.7729 45.3275 44.0424 44.2361Z" fill="#CFB593"/>
<path d="M107.243 68.2257C107.152 68.2257 107.06 68.2257 106.969 68.2257C96.7489 68.0778 95.4676 67.0833 92.8592 57.261C92.4372 55.6801 91.8881 54.1195 91.6033 52.5131C91.3288 50.9474 90.4034 50.264 89.0051 50.2844C87.5459 50.3099 86.0968 50.5394 85.6544 52.3958C84.9578 55.3129 84.2307 58.2249 83.4172 61.1114C82.2478 65.278 79.5631 67.6494 75.2972 67.9758C71.9515 68.2359 68.5754 68.2461 65.2196 68.1645C61.9451 68.088 58.8029 65.1046 58.1419 61.6214C57.7555 59.5661 57.4707 57.4905 57.2368 55.4098C56.9673 53.0485 56.8504 50.8352 53.8505 50.0141C52.0455 49.5245 52.7726 47.556 52.737 46.1739C52.7065 44.8684 53.7387 44.5165 54.7505 44.3686C64.3501 42.961 73.8735 41.273 83.6257 43.9606C87.0781 44.9143 90.9678 44.6899 94.6541 43.7515C101.544 42.0023 108.504 42.1655 115.47 43.2976C117.352 43.6036 119.233 43.9045 121.114 44.2003C122.4 44.4043 123.712 44.5981 123.865 46.281C124.007 47.8365 124.267 49.5602 122.385 50.2487C120.794 50.825 120.545 52.0082 120.356 53.4055C120.006 56.0166 119.619 58.6278 119.182 61.2287C118.47 65.4769 115.379 68.1135 111.052 68.2002C109.781 68.2257 108.509 68.2002 107.233 68.2002V68.2206L107.243 68.2257ZM106.145 46.2249C104.045 46.1586 101.056 46.3269 98.1268 47.0409C94.8422 47.8365 93.7287 49.4021 94.2219 52.7782C94.6032 55.3843 95.2134 57.9546 96.3116 60.3821C97.3845 62.7535 99.042 64.513 101.579 65.1607C104.671 65.9511 107.823 66.2571 111.006 65.6146C114.174 64.972 116.182 63.085 116.97 59.9639C117.682 57.1386 118.013 54.2419 118.307 51.3401C118.541 49.0299 117.504 47.7957 115.409 47.0715C112.674 46.1331 109.867 46.2402 106.15 46.2198M70.4109 46.2249C69.033 46.2861 66.8517 46.3422 64.6806 46.5003C63.9739 46.5513 63.2824 46.8777 62.5858 47.0766C60.135 47.7855 59.0774 49.4582 59.1537 51.9725C59.23 54.5377 59.7384 57.0366 60.3079 59.5202C61.218 63.5236 63.1451 65.2831 67.1568 65.8032C69.7957 66.1449 72.4346 65.8746 75.0023 65.2882C77.3971 64.7425 79.314 63.3247 80.4478 61.0859C81.7291 58.5615 82.6443 55.8688 83.1528 53.0944C83.7935 49.6163 82.5325 47.8977 79.0648 46.8624C76.4819 46.0923 73.843 46.3575 70.4211 46.2249" fill="#2E293F"/>
<path d="M65.2653 72.5708C69.2415 75.8347 73.4311 75.3502 77.7225 73.3102C79.5987 72.4178 81.3834 71.3162 83.4426 70.8317C86.6154 70.0871 88.0797 70.7093 89.8847 73.8406C90.683 72.1628 91.7152 70.8878 93.5304 70.6073C95.2235 70.3472 96.7641 70.847 98.2641 71.5151C100.166 72.3617 102.006 73.3765 103.954 74.0803C107.772 75.4675 111.453 75.4981 114.57 72.1169C114.26 76.9464 107.604 82.5919 101.366 83.3977C96.4337 84.0352 92.1626 81.113 89.9407 75.3298C87.4238 81.2456 83.463 84.535 76.8378 83.0305C71.0617 81.7199 65.906 76.9974 65.2908 72.5198L65.2603 72.5605L65.2653 72.5708Z" fill="#2E293F"/>
<path d="M69.6635 30.2573C70.2279 29.8748 70.8787 29.7881 71.4939 29.9411C79.6648 31.9505 87.973 33.2254 96.2252 34.7707C97.898 35.551 99.581 36.3363 101.955 37.443C89.9509 38.2131 79.3597 36.2599 69.6635 30.2522" fill="#2E293F"/>
<path d="M51.6082 53.9972C51.9794 53.9156 52.0353 54.1706 52.0302 54.4307C52.0302 54.5225 51.8879 54.6143 51.8065 54.7061C51.7557 54.4562 51.7048 54.2012 51.654 53.9513L51.6082 53.9972Z" fill="#2E293F"/>
<path d="M65.2959 72.5299C65.1738 72.5096 65.0467 72.4891 64.9247 72.4636C65.1891 72.0251 65.1637 72.4892 65.2653 72.5707L65.2959 72.5249" fill="#2E293F"/>
<path d="M106.15 46.225C109.862 46.2454 112.674 46.1383 115.409 47.0767C117.504 47.7957 118.541 49.0299 118.307 51.3452C118.013 54.2471 117.682 57.1387 116.97 59.9691C116.187 63.0851 114.174 64.9771 111.006 65.6197C107.823 66.2623 104.671 65.9563 101.579 65.1658C99.0471 64.5181 97.3896 62.7587 96.3117 60.3873C95.2134 57.9597 94.6032 55.3945 94.2219 52.7834C93.7287 49.4073 94.8422 47.8416 98.1268 47.0461C101.056 46.3372 104.045 46.1638 106.145 46.2301" fill="#946896"/>
<path d="M70.4109 46.2301C73.8328 46.3678 76.4717 46.0975 79.0547 46.8676C82.5223 47.9029 83.7833 49.6215 83.1426 53.0996C82.6342 55.879 81.719 58.5666 80.4377 61.091C79.3038 63.3299 77.392 64.7476 74.9921 65.2933C72.4244 65.8798 69.7855 66.1501 67.1466 65.8084C63.1349 65.2882 61.213 63.5288 60.2977 59.5254C59.7333 57.0418 59.2198 54.5428 59.1435 51.9776C59.0724 49.4634 60.1249 47.7907 62.5756 47.0818C63.2722 46.8829 63.9637 46.5565 64.6705 46.5055C66.8416 46.3474 69.0228 46.2913 70.4007 46.2301" fill="#946896"/>
<path d="M69.8058 128.409C68.9567 125.329 67.5686 123.834 65.6823 123.972H65.6569C64.8179 124.161 64.1518 124.426 63.6586 124.768C62.2451 125.971 61.7011 128.761 62.0011 133.305L62.0926 134.702C62.1994 136.309 62.4078 137.966 62.7129 139.639C63.4908 143.606 64.6552 145.534 66.267 145.534C66.3178 145.534 66.3636 145.534 66.4144 145.529C67.5991 145.442 68.6008 144.983 69.3991 144.162L69.4194 144.137C70.0347 143.26 70.4007 142.454 70.5024 141.735C70.6906 141.47 70.8024 140.246 70.6194 134.442C70.4923 132.525 70.2228 130.5 69.8109 128.404M66.506 142.678C66.1755 142.678 65.3264 141.873 64.5942 134.452C64.5637 133.198 64.5942 132.764 64.6247 132.616H64.6857V132.438C64.7874 128.113 65.3416 127.603 65.5755 127.588C65.8602 127.567 66.1043 127.659 66.3128 127.879C67.0704 129.184 67.5331 130.989 67.6805 133.239L67.8635 135.972C67.9805 141.429 67.1975 142.632 66.5009 142.683" fill="white"/>
<path d="M91.9338 141.883C90.6678 139.618 89.3305 136.844 87.9628 133.636C89.3458 132.213 89.9712 130.337 89.8186 128.052C89.7271 126.701 89.3865 125.426 88.7966 124.258L88.7763 124.227C87.5764 122.636 86.1527 121.891 84.5358 122.009C83.7731 122.065 82.8426 122.197 81.7698 122.396C81.4291 122.427 81.0376 122.687 81.1088 123.743C81.7647 130.74 82.502 137.436 83.2952 143.637C83.3206 144.02 83.5341 144.473 84.4138 144.473C84.485 144.473 84.5561 144.473 84.6324 144.463L84.7493 144.453C85.2476 144.417 85.6442 144.275 85.929 144.025L86.0052 143.958L84.9019 135.069C85.0849 135.039 85.3137 135.003 85.4103 134.988C85.5934 135.309 86.2595 136.64 88.217 140.766C89.2746 143.29 89.6763 143.642 89.9508 143.642L90.022 143.632C91.3847 143.117 91.9999 142.627 91.9643 142.077L91.9542 141.908L91.9338 141.867V141.883ZM87.0527 129.837C86.7222 131.413 86.0001 132.224 84.8409 132.31L84.429 132.341C84.1748 130.678 83.9714 128.72 83.829 126.517C83.8189 126.344 83.8087 125.936 83.7985 125.303L83.9155 125.293C85.929 125.145 86.9764 126.104 87.1187 128.23L87.1289 128.414C87.1594 128.904 87.134 129.383 87.0577 129.837" fill="white"/>
<path d="M59.8554 139.557H59.8401H59.8249C59.2605 139.654 59.23 140.052 59.2402 140.22L59.2656 140.587C59.4029 142.622 59.1639 143.193 58.9808 143.346C57.4351 143.326 56.6521 142.852 56.586 141.893C56.4233 137.681 56.2606 134.381 56.1132 132.076L55.986 130.189C55.9352 129.419 56.0165 128.832 56.2301 128.445C56.4335 128.078 56.7538 127.879 57.2114 127.843L57.9741 127.787C58.0199 127.945 58.1215 128.435 58.269 129.959C58.2995 130.444 58.3961 131.918 59.1741 131.918C59.1893 131.918 59.2046 131.918 59.2198 131.918L59.6367 131.887C60.6282 131.744 61.1062 131.398 61.0706 130.852C60.9231 128.613 60.7503 127.246 60.5571 126.69C60.1859 125.319 59.5961 124.65 58.7978 124.712L57.069 124.839C55.6911 124.941 54.7657 125.262 54.2217 125.844C53.398 126.899 53.1489 129.623 53.4488 134.172C53.5505 135.737 53.7743 138.808 54.1098 143.301C54.181 144.377 54.6742 145.218 55.5691 145.794L55.5996 145.81C56.6725 146.248 57.6538 146.473 58.508 146.473C58.63 146.473 58.7469 146.473 58.8639 146.457C59.3622 146.422 59.83 146.304 60.2621 146.111C61.4977 145.417 62.0621 144.04 61.9248 142.02C61.8994 141.664 61.8587 141.286 61.7926 140.888C61.7316 140.042 61.0808 139.598 59.8554 139.562" fill="white"/>
<path d="M34.936 144.203C34.1377 144.229 33.5479 144.254 33.1564 144.28L32.8005 144.305C31.6259 144.392 30.4311 144.519 29.2057 144.677C29.2057 144.713 29.1904 144.734 29.1548 144.734C29.0836 143.591 28.9515 141.398 28.7684 138.15C28.2905 134.044 28.0006 131.163 27.8888 129.505L27.7108 126.777C27.6854 126.384 27.3498 126.211 26.7092 126.262C26.0177 126.323 25.6363 126.476 25.5702 126.721L25.7838 129.934C25.9465 132.397 26.216 134.666 26.5922 136.757L26.9227 143.29C26.9888 143.77 27.0702 144.728 27.1668 146.177C27.2176 146.952 27.3651 147.426 27.6142 147.595C29.1955 147.227 31.4022 146.942 34.2292 146.733L34.7326 146.697C35.2004 146.529 35.4038 146.065 35.358 145.305L35.3478 145.147C35.3224 144.739 35.18 144.428 34.9309 144.208" fill="white"/>
<path d="M100.135 137.074C100.125 136.819 100.115 136.569 100.1 136.334C99.9369 133.886 99.3827 132.356 98.4014 131.658L98.3556 131.632C96.271 130.903 95.1575 129.658 94.9439 127.843L94.9032 127.205C94.8626 126.593 94.9236 126.124 95.0863 125.818C95.2337 125.533 95.4727 125.385 95.8134 125.359L96.1032 125.339C96.1032 125.339 96.1388 125.339 96.154 125.339C96.9065 125.339 97.1557 126.752 97.237 127.94C97.2523 128.154 97.2625 128.394 97.2726 128.654C97.3133 129.23 98.198 129.317 98.976 129.332C99.3827 129.301 99.6827 129.128 99.8708 128.822C100.054 128.526 100.12 128.123 100.084 127.578C99.8708 125.793 99.6115 124.462 99.3217 123.615L99.3115 123.59C98.6455 122.253 97.6794 121.626 96.4388 121.713C95.854 121.759 95.2083 121.866 94.5168 122.039L94.4863 122.05C92.6203 122.937 91.7508 124.554 91.9033 126.843L91.9949 128.18C92.183 130.995 93.627 133.019 96.2913 134.197C96.6015 134.514 97.0032 135.528 97.2015 138.517L97.2421 139.078C97.2269 140.383 96.7438 140.419 96.5862 140.429L96.3727 140.445C95.5388 140.332 95.0964 139.695 95.0151 138.502C95.01 137.823 95.0253 137.155 95.0558 136.508V136.497V136.487C95.0253 136.069 94.8066 135.544 93.9067 135.447H93.8863H93.8609C93.388 135.523 93.0118 135.61 92.7474 135.702L92.7016 135.722C92.2389 136.049 92.0305 136.599 92.0813 137.359L92.1372 138.242C92.2338 139.669 92.5135 140.899 92.9711 141.893C93.5762 143.219 94.6338 143.892 96.1235 143.892C96.2506 143.892 96.3828 143.887 96.5201 143.877H96.5761C97.6947 143.79 98.6404 143.433 99.3878 142.806L99.4031 142.791C100.1 142.051 100.344 140.327 100.161 137.528L100.13 137.063L100.135 137.074Z" fill="white"/>
<path d="M45.583 130.204C45.4864 128.776 44.8 128.113 43.5136 128.205L42.8018 128.256C41.2866 128.368 39.8273 128.832 38.4138 129.653C37.6104 130.342 37.2291 131.03 37.2749 131.724L38.368 146.697C38.485 147.192 38.6884 147.426 38.9782 147.406C40.0917 147.324 40.6357 147.105 40.6154 146.748C40.6103 146.666 40.5798 146.473 40.5239 146.162C40.2341 142.26 40.0612 139.94 40.0104 139.21L44.1848 139.17C44.2712 142.505 44.3119 144.688 44.3119 145.718C44.3322 146.039 44.5305 146.187 44.9017 146.156L45.5627 146.111C45.9898 146.08 46.3203 145.912 46.5491 145.611C46.6406 145.606 46.5491 142.332 46.2542 135.794C46.1016 133.473 45.8779 131.612 45.5779 130.199M39.5883 137.604C39.5832 137.517 39.446 136.196 39.1714 133.652C39.1256 132.938 39.207 132.428 39.4256 132.127C40.2544 131.525 41.0984 131.193 41.9577 131.132C42.1204 131.122 42.2882 131.127 42.4713 131.148C43.2492 131.091 43.7068 132.096 43.8441 134.167L43.961 137.492L39.5883 137.599V137.604Z" fill="white"/>
<path d="M80.4326 128.475C80.3919 127.904 80.3258 127.149 80.219 126.155C80.0106 124.462 79.6394 123.697 79.0648 123.732L78.3632 123.783C77.7479 123.865 76.9344 124.043 76.97 124.635C77.1988 126.91 77.3615 128.771 77.453 130.158L77.6971 133.871C77.8293 135.85 77.87 137.635 77.814 139.165V139.185C77.8954 140.383 77.4581 140.975 76.4412 141.051H76.3853C76.1412 141.077 75.9175 140.96 75.7039 140.705C75.2514 139.986 74.8701 137.267 74.565 132.637C74.4837 131.387 74.4328 128.598 74.4226 124.329C74.382 123.737 73.5532 123.651 72.9176 123.635C72.5464 123.661 72.1854 123.794 71.8499 124.023C71.6211 124.059 71.3872 124.319 71.4583 127.975C71.6617 131.051 71.8346 133.366 71.9719 134.85C72.2414 138.915 72.6024 141.47 73.0803 142.663C73.5532 143.821 74.4887 144.407 75.8717 144.407C75.9989 144.407 76.1311 144.407 76.2683 144.392C77.992 144.264 79.0852 143.948 79.6241 143.428L79.6445 143.408C80.7478 141.939 81.1088 138.568 80.7478 133.101L80.4428 128.475H80.4326Z" fill="white"/>
<path d="M143.084 127.466L142.769 119.199L142.759 119.168C142.566 118.648 142.083 118.413 141.32 118.464L141.203 118.474C140.522 118.525 140.105 118.724 139.927 119.092L139.912 119.122V119.158C139.841 119.739 139.881 122.335 140.029 127.078L136.993 127.466L136.886 125.844C136.795 124.492 136.683 122.468 136.546 119.811C136.5 119.127 135.366 119.127 134.995 119.127L134.125 119.25C133.622 119.285 133.403 119.841 133.47 120.897C134.044 129.016 134.537 135.523 134.924 140.246V140.292L134.949 140.332C135.127 140.633 135.447 140.786 135.9 140.786C135.951 140.786 136.007 140.786 136.068 140.781C137.202 140.7 137.858 140.276 138.015 139.522L138.025 139.481V139.44C137.837 138.394 137.598 135.722 137.319 131.499L137.263 130.643L140.181 130.209C140.573 133.851 140.924 136.538 141.224 138.196C141.285 139.068 141.757 139.501 142.591 139.44L142.82 139.425C143.552 139.369 144.071 139.098 144.361 138.624L144.396 138.563L144.386 138.491C143.649 133.157 143.207 129.449 143.074 127.476" fill="white"/>
<path d="M154.235 136.416C154.148 135.503 153.762 135.309 153.452 135.309C153.437 135.309 153.416 135.309 153.386 135.309C151.271 135.615 149.776 135.809 148.922 135.88L148.322 128.531C150.34 128.23 151.515 128.047 151.82 127.981C152.145 127.955 152.394 127.853 152.562 127.68C152.735 127.496 152.816 127.241 152.791 126.92L152.765 126.553C152.694 125.492 152.399 124.956 151.891 124.956C151.876 124.956 151.855 124.956 151.825 124.956L148.235 125.512C148.159 123.804 148.093 122.534 148.032 121.636L148.016 121.386C149.094 121.198 149.959 121.08 150.594 121.029L151.688 120.948C151.962 120.927 152.171 120.795 152.293 120.555C152.404 120.341 152.45 120.045 152.425 119.663L152.374 118.872C152.343 118.444 152.094 117.929 151.067 117.929C150.981 117.929 150.889 117.929 150.798 117.939C148.454 118.072 147.015 118.158 146.41 118.204C146.054 118.23 145.749 118.357 145.5 118.582C145.189 118.643 144.839 119.25 145.251 127.965L145.322 129.001C145.545 132.366 145.835 135.559 146.181 138.481C146.206 138.833 146.43 139.246 147.386 139.246C147.483 139.246 147.584 139.246 147.691 139.236L147.818 139.226L153.198 138.4C153.726 138.359 154.342 138.027 154.25 136.66L154.235 136.411V136.416Z" fill="white"/>
<path d="M110.731 120.479C110.731 120.479 110.691 120.479 110.676 120.479C110.218 120.504 109.735 120.53 109.242 120.571C106.867 120.744 104.101 121.075 101.01 121.545C100.771 121.591 100.374 121.789 100.425 122.559L100.501 123.702C100.552 124.482 100.995 124.605 101.254 124.605C101.279 124.605 101.3 124.605 101.34 124.605L104.457 124.13C104.457 126.4 104.508 128.414 104.625 130.133C104.696 131.214 104.788 132.275 104.905 133.29C105.042 134.457 105.149 135.646 105.225 136.834C105.332 138.44 105.393 140.134 105.403 141.857C105.393 141.893 105.393 141.934 105.393 141.975C105.398 142.072 105.433 142.163 105.494 142.24C105.581 142.377 105.789 142.428 106.232 142.428C106.293 142.428 106.364 142.428 106.44 142.428L107.076 142.383C108.098 142.306 108.474 142.158 108.469 141.837C108.428 139.598 108.352 137.65 108.245 136.049C108.174 134.957 108.082 133.998 107.981 133.198C107.884 132.433 107.798 131.5 107.726 130.429C107.615 128.751 107.538 126.502 107.493 123.748L110.813 123.33C111.296 123.294 111.56 122.973 111.56 122.407L111.489 121.366C111.372 120.637 111.011 120.484 110.726 120.484" fill="white"/>
<path d="M131.446 134.274H131.426H131.41C130.866 134.371 130.81 134.733 130.826 134.937L130.851 135.299C130.988 137.39 130.724 137.925 130.566 138.058C129.021 138.037 128.238 137.563 128.177 136.604C128.014 132.397 127.851 129.092 127.699 126.787L127.571 124.9C127.521 124.13 127.602 123.544 127.816 123.156C128.019 122.784 128.339 122.59 128.797 122.554L129.56 122.498C129.605 122.656 129.707 123.146 129.854 124.671C129.89 125.165 129.992 126.68 130.805 126.629L131.222 126.599C132.209 126.456 132.692 126.109 132.656 125.563C132.509 123.324 132.341 121.958 132.143 121.402C131.771 120.03 131.176 119.357 130.383 119.423L128.655 119.551C127.282 119.653 126.351 119.979 125.807 120.555C124.989 121.611 124.734 124.334 125.034 128.878C125.136 130.449 125.36 133.519 125.695 138.007C125.766 139.083 126.26 139.919 127.155 140.506L127.185 140.521C128.258 140.96 129.234 141.184 130.099 141.184C130.215 141.184 130.337 141.184 130.454 141.169C130.953 141.133 131.421 141.016 131.853 140.822C133.088 140.128 133.648 138.751 133.515 136.732C133.495 136.38 133.449 135.998 133.383 135.6C133.322 134.753 132.671 134.309 131.451 134.274" fill="white"/>
<path d="M123.458 129.715C123.458 129.715 124.2 130.072 123.987 130.857C123.763 130.913 123.55 130.944 123.346 130.949C123.316 130.219 123.28 129.449 123.245 128.633C123.072 126.007 122.812 123.86 122.472 122.253C122.355 120.545 121.475 119.704 119.924 119.816L119.116 119.877C117.377 120.004 115.669 120.55 114.047 121.494L114.021 121.514C113.065 122.335 112.603 123.182 112.664 124.038L113.258 132.157C112.974 132.254 112.664 132.31 112.313 132.305C111.936 131.596 112.577 131.066 112.577 131.066C111.428 131.27 111.987 132.866 112.221 133.279C112.481 133.743 112.903 134.014 113.406 134.131L113.914 141.072V141.103C114.072 141.735 114.347 142.056 114.748 142.056C114.763 142.056 114.784 142.056 114.799 142.056C115.46 142.01 115.938 141.918 116.269 141.786C116.757 141.587 116.843 141.307 116.833 141.103C116.833 141.041 116.813 140.904 116.731 140.424C116.492 137.262 116.324 135.003 116.233 133.667C116.777 133.407 117.27 133.08 117.636 132.713L119.177 132.698C119.584 132.902 120.057 133.055 120.555 133.152C120.641 136.615 120.682 138.843 120.687 139.96C120.707 140.23 120.85 140.689 121.551 140.638L122.304 140.582C122.817 140.542 123.224 140.348 123.509 139.996C123.656 139.93 123.667 139.562 123.59 137.012C123.56 135.941 123.509 134.544 123.438 132.846C123.85 132.606 124.16 132.259 124.302 131.785C124.439 131.326 124.633 129.638 123.468 129.72M117.89 129.811C117.011 129.23 116.431 129.444 115.908 129.944C115.847 129.363 115.704 127.981 115.465 125.762C115.419 125.023 115.496 124.487 115.704 124.181C116.604 123.534 117.535 123.171 118.47 123.1C118.643 123.09 118.826 123.095 119.019 123.115H119.035H119.05C119.07 123.115 119.09 123.115 119.106 123.115C120.011 123.115 120.316 124.89 120.412 126.369L120.54 129.939C119.65 129.256 118.882 128.74 117.88 129.811" fill="white"/>
<path d="M3.46766 131.132L0.884705 135.6L2.17618 139.516L2.50668 144.096L4.42864 145.845L5.08963 148.135L8.02342 149.339L18.1264 149.762L15.6045 126.981L3.46766 131.132Z" fill="#1D1D1B"/>
<path d="M14.8723 138.338C14.8723 138.338 14.9486 138.247 15.0655 138.094C14.6029 138.486 14.013 138.762 13.3826 138.772C12.686 138.782 12.0097 138.7 11.3233 138.629C9.95557 138.456 8.59799 138.221 7.33703 137.93C6.07606 137.64 4.90152 137.283 3.99647 136.732C3.08634 136.212 2.40501 135.646 1.93214 135.258C1.45928 134.865 1.20505 134.621 1.20505 134.621C1.20505 134.621 1.46945 134.85 1.95757 135.222C2.44568 135.59 3.16261 136.089 4.06766 136.594C4.96254 137.114 6.1269 137.451 7.38279 137.716C8.63867 137.981 9.99625 138.19 11.3589 138.338C12.0352 138.415 12.7267 138.512 13.3775 138.512C14.0283 138.512 14.6384 138.206 15.1011 137.767C16.0113 136.87 16.296 135.437 15.8384 134.493C15.6249 134.019 15.2333 133.718 14.8469 133.57C14.6029 133.473 14.369 133.417 14.1503 133.386C13.7944 133.356 13.5198 133.346 13.3724 133.346C13.0419 133.356 12.8639 133.397 12.8639 133.397C12.8639 133.397 12.9758 133.366 13.1792 133.341C12.686 133.295 9.94032 133.019 8.55732 132.545C8.54715 132.453 8.31834 128.7 8.19631 126.752C5.46591 126.114 2.22705 127.022 0.788117 129.403C-0.330485 131.25 0.0966177 133.131 1.19997 134.61C1.14912 134.636 1.09319 134.661 1.04235 134.692C-0.132187 135.401 -0.0864262 137.033 0.101702 138.241C0.335592 139.726 1.19997 140.914 2.33891 141.776C1.5508 142.597 1.25081 143.714 2.04909 145.05C2.61347 145.993 3.63038 146.575 4.78458 146.906C4.57611 147.263 4.43374 147.661 4.48967 148.033C4.59645 148.711 4.93711 149.211 5.39472 149.589C5.12524 149.354 5.01338 149.181 5.01338 149.181C5.01338 149.181 5.18626 149.364 5.54218 149.589C5.71505 149.716 5.93877 149.833 6.20317 149.946C6.4574 150.088 6.77772 150.145 7.1133 150.262C7.4438 150.359 7.83023 150.374 8.22682 150.451C8.6285 150.451 9.05052 150.445 9.48779 150.44C9.91998 150.369 10.3674 150.303 10.825 150.231C11.2674 150.134 11.7402 149.997 12.1623 149.833C13.047 149.538 13.8758 149.058 14.4859 148.431C15.0808 147.809 15.4774 146.998 15.3706 146.304C15.3452 146.136 15.3045 145.988 15.213 145.85C15.1316 145.697 15.0554 145.56 14.9639 145.453C14.8012 145.218 14.6029 145.045 14.4401 144.912C14.2774 144.779 14.1402 144.693 14.0436 144.637C13.8147 144.927 13.5453 145.208 13.2504 145.478C12.9656 145.728 12.6555 146.003 12.2996 146.233C11.964 146.473 11.5877 146.672 11.2064 146.845C10.825 147.018 10.4284 147.136 10.0318 147.253C9.63524 147.345 9.23865 147.411 8.85731 147.447C8.08954 147.523 7.37262 147.477 6.76247 147.401C5.54726 147.243 4.79475 146.911 4.79475 146.911C4.79475 146.911 5.59302 147.08 6.78281 147.115C7.38279 147.141 8.07429 147.105 8.80646 146.998C9.17763 146.952 9.54372 146.855 9.91998 146.763C10.2912 146.651 10.6623 146.534 11.0182 146.366C11.3742 146.207 11.7301 146.029 12.0504 145.81C12.3758 145.601 12.6758 145.371 12.9809 145.121C13.5504 144.642 14.0639 144.142 14.369 143.622C14.6791 143.112 14.7808 142.587 14.6893 142.235C14.6588 142.077 14.6079 141.954 14.5723 141.867C14.2063 142.189 13.769 142.454 13.2961 142.668C13.0673 142.77 12.8385 142.872 12.6046 142.944C12.3809 143.03 12.1318 143.122 11.8724 143.163C11.3691 143.255 10.8606 143.403 10.342 143.454C9.82337 143.459 9.30475 143.474 8.79629 143.479C8.28784 143.428 7.79464 143.377 7.31669 143.326C6.83874 143.27 6.38113 143.142 5.94894 143.051C5.51167 142.969 5.11507 142.821 4.7439 142.719C4.00156 142.505 3.41175 142.245 2.98973 142.077C2.57788 141.898 2.34908 141.781 2.34908 141.781C2.34908 141.781 3.32023 142.102 4.81 142.439C5.18117 142.51 5.58285 142.632 6.01504 142.683C6.44214 142.74 6.89467 142.826 7.36245 142.882C7.83531 142.923 8.31834 142.959 8.81155 142.995C9.30475 142.974 9.80303 142.954 10.3013 142.933C10.7996 142.893 11.2776 142.765 11.7657 142.689C12.0097 142.658 12.2284 142.581 12.4673 142.5C12.7063 142.428 12.93 142.342 13.1385 142.245C13.9876 141.883 14.7605 141.388 15.1215 140.73C15.4977 140.067 15.4215 139.363 15.2435 138.95C15.0706 138.522 14.8825 138.333 14.8825 138.333C14.8825 138.333 14.9283 138.379 15.0147 138.466C15.0961 138.558 15.2181 138.7 15.3299 138.91" fill="#CFB593"/>
<path d="M167.623 115.409L175.854 117.215L179.642 121.254L179.22 124.747L178.798 130.051C178.798 130.051 177.354 131.979 177.354 132.219C177.354 132.458 177.054 134.508 177.054 134.508L170.267 135.472L160.052 133.963L167.623 115.399V115.409Z" fill="#1D1D1B"/>
<path d="M176.978 128.414C176.622 128.567 176.251 128.771 175.829 128.914C175.412 129.062 174.98 129.256 174.512 129.378C174.044 129.495 173.561 129.618 173.063 129.74C172.555 129.801 172.041 129.868 171.522 129.934C171.004 129.954 170.48 129.883 169.966 129.862C169.707 129.862 169.448 129.806 169.214 129.75C168.975 129.709 168.731 129.643 168.492 129.572C167.999 129.429 167.531 129.225 167.124 128.96C167.094 129.052 167.063 129.179 167.053 129.337C167.007 129.699 167.175 130.204 167.546 130.668C167.917 131.143 168.487 131.561 169.112 131.958C169.448 132.162 169.778 132.346 170.124 132.509C170.465 132.683 170.841 132.81 171.217 132.912C171.594 133.029 171.975 133.091 172.356 133.152C172.738 133.182 173.114 133.228 173.49 133.223C174.227 133.223 174.919 133.162 175.514 133.05C176.693 132.851 177.461 132.565 177.461 132.565C177.461 132.565 176.754 132.999 175.57 133.33C174.975 133.488 174.273 133.641 173.5 133.672C173.119 133.687 172.712 133.677 172.31 133.647C171.904 133.59 171.497 133.529 171.095 133.407C170.694 133.29 170.297 133.147 169.936 132.958C169.555 132.78 169.214 132.555 168.899 132.346C168.573 132.122 168.273 131.877 168.004 131.622C167.912 131.693 167.79 131.795 167.643 131.953C167.5 132.106 167.328 132.305 167.195 132.565C167.119 132.688 167.063 132.836 166.997 132.999C166.926 133.147 166.901 133.3 166.901 133.473C166.88 134.177 167.378 134.922 168.05 135.452C168.731 135.987 169.621 136.339 170.531 136.508C170.968 136.61 171.456 136.676 171.904 136.712C172.366 136.717 172.814 136.722 173.256 136.727C173.688 136.666 174.11 136.615 174.502 136.559C174.883 136.431 175.265 136.36 175.58 136.217C175.895 136.054 176.205 135.952 176.439 135.773C176.693 135.625 176.897 135.472 177.049 135.324C177.37 135.054 177.522 134.85 177.522 134.85C177.522 134.85 177.431 135.039 177.192 135.309C177.598 134.871 177.868 134.325 177.888 133.641C177.898 133.264 177.705 132.887 177.451 132.565C178.549 132.071 179.485 131.352 179.922 130.337C180.542 128.899 180.1 127.838 179.215 127.134C179.215 127.134 179.007 127.282 178.62 127.517C178.229 127.746 177.675 128.088 176.963 128.404" fill="#CFB593"/>
<path d="M166.255 125.655C166.331 125.558 166.367 125.507 166.367 125.507C166.367 125.507 166.204 125.726 166.087 126.17C165.965 126.609 165.98 127.318 166.433 127.919C166.88 128.521 167.709 128.899 168.594 129.138C168.812 129.205 169.041 129.256 169.29 129.296C169.539 129.342 169.768 129.388 170.012 129.383C170.505 129.388 170.999 129.449 171.492 129.419C171.99 129.368 172.483 129.317 172.977 129.266C173.46 129.159 173.938 129.052 174.395 128.944C174.853 128.822 175.285 128.674 175.707 128.557C176.129 128.445 176.51 128.271 176.871 128.144C178.3 127.598 179.225 127.144 179.225 127.144C180.247 126.129 180.949 124.829 180.99 123.324C181.02 122.1 180.858 120.474 179.607 119.943C179.556 119.923 179.495 119.908 179.439 119.887C180.344 118.265 180.532 116.338 179.185 114.67C177.451 112.513 174.126 112.074 171.502 113.094C171.634 115.042 171.883 118.796 171.883 118.882C170.577 119.545 167.887 120.208 167.404 120.326C167.612 120.326 167.729 120.336 167.729 120.336C167.729 120.336 167.541 120.321 167.216 120.356C167.073 120.377 166.799 120.423 166.453 120.504C166.24 120.565 166.016 120.652 165.787 120.785C165.426 120.989 165.075 121.341 164.923 121.84C164.587 122.84 165.055 124.222 166.072 124.977C166.585 125.344 167.226 125.558 167.872 125.466C168.517 125.369 169.194 125.181 169.855 125.007C171.182 124.666 172.504 124.263 173.714 123.824C174.924 123.386 176.032 122.891 176.856 122.243C177.685 121.616 178.336 121.019 178.768 120.581C179.205 120.147 179.439 119.877 179.439 119.877C179.439 119.877 179.22 120.157 178.803 120.611C178.381 121.06 177.781 121.718 176.948 122.366C176.119 123.039 175 123.559 173.79 124.028C172.575 124.492 171.258 124.921 169.926 125.288C169.25 125.451 168.594 125.63 167.902 125.716C167.277 125.793 166.885 125.752 166.377 125.431C166.509 125.563 166.367 125.497 166.367 125.497" fill="#CFB593"/>
</g>
<defs>
<clipPath id="clip0_27_24">
<rect width="181" height="154" fill="white"/>
</clipPath>
</defs>
</svg>
