<svg width="657" height="255" viewBox="0 0 657 255" fill="none" xmlns="http://www.w3.org/2000/svg">
<path d="M67.1185 27.8564V2.10266H0V113.586H25.5745V70.3153H58.4394V44.6776H25.5745V27.8564H67.1185Z" fill="black"/>
<path d="M181.451 35.977C178.558 29.2485 174.508 23.3321 169.532 18.3438C164.556 13.3554 158.538 9.29513 151.827 6.39493C145.115 3.49473 137.824 1.98663 130.187 1.98663C122.549 1.98663 115.374 3.49473 108.547 6.39493C101.835 9.29513 95.9331 13.3554 90.957 18.3438C85.981 23.3321 82.0465 29.2485 79.0377 35.977C76.1447 42.7054 74.6403 50.0139 74.6403 57.6704C74.6403 65.327 76.1447 72.6355 79.0377 79.3639C81.9308 86.0924 85.981 92.0088 90.957 97.1132C95.9331 102.101 101.835 106.162 108.547 109.062C115.259 111.962 122.549 113.47 130.187 113.47C137.824 113.47 145.115 111.962 151.827 109.062C158.538 106.162 164.44 102.101 169.532 97.1132C174.624 92.1248 178.558 86.2084 181.451 79.3639C184.344 72.6355 185.849 65.327 185.849 57.6704C185.849 50.0139 184.344 42.8214 181.451 35.977ZM157.844 69.3873C156.224 73.0995 154.141 76.2317 151.364 79.0159C148.586 81.8001 145.462 83.8882 141.759 85.5124C138.171 87.1365 134.237 87.8325 130.071 87.8325C125.905 87.8325 122.086 87.0205 118.383 85.5124C114.796 84.0042 111.555 81.8001 108.778 79.0159C106.117 76.2317 103.918 73.0995 102.298 69.3873C100.678 65.791 99.9833 61.8467 99.9833 57.6704C99.9833 53.4942 100.793 49.6659 102.298 45.9537C103.802 42.3574 106.001 39.1092 108.778 36.441C111.555 33.6568 114.68 31.5687 118.383 29.9445C121.97 28.3204 125.905 27.6244 130.071 27.6244C134.237 27.6244 138.056 28.4364 141.759 29.9445C145.346 31.5687 148.586 33.6568 151.364 36.441C154.025 39.1092 156.224 42.3574 157.844 45.9537C159.348 49.5499 160.158 53.4942 160.158 57.6704C160.274 61.8467 159.464 65.791 157.844 69.3873Z" fill="black"/>
<path d="M257.596 2.10266V67.2991L221.375 2.45069H193.486V113.586H219.061V48.6219L255.397 113.586H283.171V2.10266H257.596Z" fill="black"/>
<path d="M373.086 36.905C370.309 30.1766 366.49 24.3762 361.746 19.2718C356.885 14.1675 351.331 10.1072 344.735 6.97495C338.254 3.84274 331.311 2.10262 323.905 1.63859V1.52258H298.33V113.586H323.905C331.427 113.238 338.486 111.498 344.966 108.482C351.446 105.466 357.001 101.521 361.861 96.5331C366.606 91.5448 370.425 85.8604 373.202 79.3639C375.979 72.8675 377.252 65.791 377.252 58.3665C377.252 50.71 375.864 43.6335 373.086 36.905ZM349.595 69.2712C348.206 72.7515 346.239 75.7677 343.809 78.3199C341.379 80.872 338.37 83.0762 335.014 84.7003C331.658 86.3244 327.955 87.3685 324.02 87.8325V27.3924C327.955 27.8564 331.542 28.9005 334.898 30.6406C338.254 32.3807 341.147 34.7009 343.693 37.4851C346.239 40.2692 348.206 43.5175 349.595 46.9977C350.983 50.594 351.678 54.3062 351.678 58.3665C351.678 62.1948 350.983 65.907 349.595 69.2712Z" fill="black"/>
<path d="M447.958 59.8746C444.139 53.9582 439.048 49.5499 432.336 46.5337C430.484 45.7216 428.748 45.0256 427.013 44.4455C425.277 43.8655 423.541 43.2855 421.805 42.8214C419.838 42.2414 418.102 41.5453 416.366 40.9653C414.63 40.2693 413.126 39.5732 411.622 38.7612C410.117 37.7171 409.076 36.325 408.613 34.5849C408.15 32.8447 408.266 31.1046 409.076 29.4805C409.654 28.3204 410.464 27.3924 411.506 26.8123C412.547 26.2323 413.473 25.8843 414.515 25.7683C415.44 25.6523 416.366 25.6523 417.06 25.7683C417.755 25.8843 418.333 26.0003 418.449 26.0003C419.606 26.3483 420.879 26.9283 422.268 27.8564C423.772 28.7845 424.467 30.4086 424.467 32.7287H449.925C449.925 29.0165 449.347 25.4202 448.074 21.94C446.917 18.4598 445.181 15.3275 442.866 12.6594C440.668 9.87517 437.89 7.43901 434.766 5.46687C431.641 3.49474 428.17 1.98663 424.351 1.17457C420.416 0.130503 416.482 -0.217514 412.663 0.13051C408.844 0.478534 405.257 1.29058 401.901 2.79869C398.545 4.30679 395.536 6.27893 392.875 8.83111C390.097 11.3833 387.899 14.3995 386.047 17.7637C384.08 21.476 383.038 25.4202 382.691 29.5965C382.344 33.6568 382.691 37.7171 383.733 41.5453C384.774 45.3736 386.51 48.9699 388.94 52.3341C391.37 55.6983 394.379 58.4825 397.851 60.6867C400.628 62.4268 403.29 63.8189 406.067 64.7469C408.844 65.791 411.39 66.7191 413.936 67.5311C415.325 67.9952 416.713 68.4592 417.986 68.9232C419.259 69.2713 420.416 69.7353 421.574 70.3153C422.962 71.0114 424.119 71.8234 424.929 72.6355C425.74 73.5635 426.434 74.3756 426.897 75.3037C427.36 76.2317 427.591 77.0438 427.707 77.8558C427.823 78.6679 427.823 79.3639 427.823 79.828C427.823 80.292 427.707 80.9881 427.707 81.8001C427.591 82.6122 427.36 83.4242 426.897 84.3523C426.434 85.2803 425.74 86.0924 424.929 87.0205C424.119 87.9485 422.962 88.6446 421.574 89.3406C419.491 90.2687 417.523 90.6167 415.325 90.5007C413.242 90.3847 411.274 89.6887 409.423 88.5286C408.381 87.9485 407.224 86.7885 405.951 85.1644C404.678 83.5402 403.984 81.1041 403.984 78.0879H378.409C378.409 84.8163 379.914 90.9647 382.923 96.5331C385.931 102.102 390.213 106.742 395.652 110.222C398.776 112.31 402.132 113.702 405.604 114.746C409.076 115.674 412.547 116.254 416.135 116.254C418.796 116.254 421.574 116.022 424.351 115.442C427.128 114.862 429.79 113.934 432.336 112.774C438.932 109.758 444.139 105.234 447.958 99.4333C451.777 93.5169 453.628 87.0205 453.628 79.944C453.628 72.2875 451.777 65.791 447.958 59.8746Z" fill="black"/>
<path d="M574.442 36.905C571.664 30.1766 567.846 24.3762 563.101 19.2718C558.356 14.1675 552.686 10.1072 546.09 6.97495C539.609 3.84274 532.666 2.10262 525.26 1.63859V1.52258H499.686V113.586H525.26C532.782 113.238 539.841 111.498 546.321 108.482C552.802 105.466 558.356 101.521 563.217 96.5331C568.077 91.5448 571.78 85.8604 574.557 79.3639C577.219 72.8675 578.608 65.791 578.608 58.3665C578.608 50.71 577.219 43.6335 574.442 36.905ZM550.834 69.2712C549.446 72.7515 547.479 75.7677 545.048 78.3199C542.618 80.872 539.609 83.0762 536.254 84.7003C532.898 86.3244 529.195 87.3685 525.26 87.8325V27.3924C529.195 27.8564 532.782 28.9005 536.138 30.6406C539.494 32.3807 542.387 34.7009 544.933 37.4851C547.479 40.2692 549.446 43.5175 550.834 46.9977C552.223 50.594 552.917 54.3062 552.917 58.3665C553.033 62.1948 552.339 65.907 550.834 69.2712Z" fill="black"/>
<path d="M655.91 27.8564V2.10266L584.625 2.21867V113.586H655.91V87.9486H610.2V70.3153H647.346V44.6776H610.2V27.8564H655.91Z" fill="black"/>
<path d="M74.7561 178.203C71.9788 171.474 68.16 165.674 63.4154 160.57C58.5551 155.465 53.0005 151.405 46.4043 148.273C39.9239 145.14 32.9806 143.4 25.5745 142.936V142.82H0V255H25.5745C33.0964 254.536 40.1554 252.912 46.6358 249.896C53.1162 246.879 58.7865 242.935 63.5311 237.947C68.2757 232.958 72.0945 227.274 74.8718 220.778C77.6491 214.281 78.9221 207.205 78.9221 199.78C78.9221 192.124 77.5334 184.931 74.7561 178.203ZM51.1489 210.569C49.7603 214.049 47.793 217.065 45.3629 219.618C42.9327 222.17 39.9239 224.374 36.568 225.998C33.2121 227.622 29.509 228.666 25.5745 229.13V168.69C29.509 169.154 33.0964 170.198 36.4523 171.938C39.8082 173.678 42.7012 175.999 45.2471 178.783C47.793 181.567 49.7603 184.815 51.1489 188.295C52.5376 191.892 53.2319 195.72 53.2319 199.664C53.2319 203.492 52.5376 207.205 51.1489 210.569Z" fill="black"/>
<path d="M187.7 177.275C184.807 170.546 180.757 164.63 175.781 159.641C170.689 154.653 164.787 150.593 158.076 147.693C151.364 144.792 144.073 143.284 136.436 143.284C128.798 143.284 121.508 144.792 114.796 147.693C108.084 150.593 102.182 154.653 97.2061 159.641C92.23 164.63 88.2954 170.546 85.2867 177.275C82.3936 184.003 80.8893 191.312 80.8893 198.968C80.8893 206.625 82.3936 213.933 85.2867 220.662C88.1797 227.39 92.1143 233.306 97.2061 238.411C102.182 243.399 108.084 247.459 114.796 250.36C121.508 253.26 128.798 254.768 136.436 254.768C144.073 254.768 151.364 253.26 158.076 250.36C164.787 247.459 170.689 243.399 175.781 238.411C180.873 233.423 184.807 227.506 187.7 220.662C190.593 213.933 192.098 206.625 192.098 198.968C191.982 191.312 190.593 184.119 187.7 177.275ZM164.093 210.685C162.473 214.397 160.39 217.529 157.613 220.314C154.951 223.098 151.711 225.186 148.008 226.81C144.42 228.434 140.486 229.13 136.32 229.13C132.154 229.13 128.335 228.318 124.632 226.81C121.045 225.302 117.804 223.098 115.027 220.314C112.25 217.529 110.167 214.397 108.547 210.685C106.927 207.089 106.232 203.144 106.232 198.968C106.232 194.792 107.042 190.964 108.547 187.251C110.167 183.655 112.25 180.407 115.027 177.739C117.804 174.954 120.929 172.866 124.632 171.242C128.219 169.618 132.154 168.922 136.32 168.922C140.486 168.922 144.305 169.734 148.008 171.242C151.711 172.866 154.835 174.954 157.613 177.739C160.39 180.407 162.473 183.655 164.093 187.251C165.713 190.848 166.408 194.792 166.408 198.968C166.408 203.144 165.713 207.089 164.093 210.685Z" fill="black"/>
<path d="M193.834 143.052V168.69H215.011V255H240.585V168.69H261.994V143.052H193.834Z" fill="black"/>
<path d="M337.444 143.052V168.69H358.621V255H384.195V168.69H405.604V143.052H337.444Z" fill="black"/>
<path d="M414.862 143.284V255H440.436V143.4H414.862V143.284Z" fill="black"/>
<path d="M554.769 177.275C551.876 170.546 547.826 164.63 542.85 159.641C537.758 154.653 531.972 150.593 525.144 147.693C518.432 144.792 511.142 143.284 503.504 143.284C495.867 143.284 488.576 144.792 481.864 147.693C475.152 150.593 469.251 154.653 464.275 159.641C459.299 164.63 455.364 170.546 452.355 177.275C449.462 184.003 447.958 191.312 447.958 198.968C447.958 206.625 449.462 213.933 452.355 220.662C455.248 227.39 459.299 233.306 464.275 238.411C469.251 243.399 475.152 247.459 481.864 250.36C488.576 253.26 495.867 254.768 503.504 254.768C511.142 254.768 518.317 253.26 525.144 250.36C531.856 247.459 537.758 243.399 542.85 238.411C547.941 233.423 551.876 227.506 554.769 220.662C557.662 213.933 559.166 206.625 559.166 198.968C559.166 191.312 557.778 184.119 554.769 177.275ZM531.277 210.685C529.773 214.397 527.574 217.529 524.797 220.314C522.02 223.098 518.895 225.186 515.192 226.81C511.605 228.434 507.67 229.13 503.504 229.13C499.338 229.13 495.519 228.318 491.816 226.81C488.229 225.302 484.989 223.098 482.327 220.314C479.55 217.529 477.467 214.397 475.847 210.685C474.342 207.089 473.532 203.144 473.532 198.968C473.532 194.792 474.342 190.964 475.847 187.251C477.467 183.655 479.55 180.407 482.327 177.739C484.989 174.954 488.229 172.866 491.816 171.242C495.404 169.618 499.338 168.922 503.504 168.922C507.67 168.922 511.489 169.734 515.192 171.242C518.779 172.866 522.02 174.954 524.797 177.739C527.574 180.407 529.657 183.655 531.277 187.251C532.897 190.848 533.592 194.792 533.592 198.968C533.592 203.144 532.782 207.089 531.277 210.685Z" fill="black"/>
<path d="M631.03 143.516V208.597L594.809 143.748H566.92V255H592.494V190.036L628.831 255H656.604V143.516H631.03Z" fill="black"/>
<path d="M355.844 219.154C354.802 218.109 353.876 219.154 353.182 219.85C348.669 224.606 343.114 224.954 337.675 223.91L311.754 143.516H287.568L260.258 223.794C258.869 224.026 257.48 224.142 255.976 224.026C250.421 223.91 246.95 219.966 241.974 218.806C241.742 218.806 241.626 218.69 241.395 218.69C241.511 219.27 241.742 219.85 241.974 220.314C244.751 228.202 249.264 234.351 255.166 238.411L249.611 254.884H276.69L280.046 244.675C280.162 244.675 280.277 244.675 280.393 244.675C283.402 244.211 286.295 243.167 288.957 241.427C288.957 241.427 289.072 241.427 289.072 241.311C293.238 238.527 296.71 234.235 299.256 227.738C301.802 233.423 305.158 238.179 309.555 241.311C309.555 241.311 309.671 241.311 309.671 241.427C311.869 242.935 314.415 244.095 317.193 244.675H317.308L320.664 254.884H347.627L342.42 238.875C348.322 235.047 352.835 229.478 355.844 222.17C356.307 221.126 356.654 219.966 355.844 219.154ZM303.306 216.137C302.38 216.833 301.455 217.645 300.644 218.69C298.909 220.778 297.983 219.154 297.173 218.109C296.363 217.297 295.668 216.601 294.858 216.021C294.627 215.905 294.511 215.789 294.28 215.673C293.238 215.093 292.081 214.745 291.04 214.513C290.924 214.513 290.808 214.513 290.692 214.513L299.487 188.759L307.819 214.397H307.703C306.431 214.629 305.158 214.977 304 215.789C303.653 215.905 303.537 216.021 303.306 216.137Z" fill="#1566A6"/>
</svg>
